<svg id="Layer_1" data-name="Layer 1" viewBox="0 0 325 399" xmlns="http://www.w3.org/2000/svg">
 <defs>
  <style>.cls-1{fill:#fff;}.cls-2{fill:#898989;}.cls-3{fill:#ff01a2;}.cls-4{fill:#ffef03;}.cls-5{fill:#0084e9;}</style>
 </defs>
 <title>Essex-logo_PoV</title>
 <path class="cls-1" d="M0,399Q0,199.5,0,0H325q0,199.5,0,399ZM278,128.92a4.16,4.16,0,0,0-.62.19c-.79.39-1.55.85-2.36,1.19a1.77,1.77,0,0,0-1.23,1.48,2.13,2.13,0,0,1-.49,1.19,8.84,8.84,0,0,1-3.53,2.45c-.65.19-1.22.64-1.86.85a3.39,3.39,0,0,1-1.83.29,2.31,2.31,0,0,0-2.13.43c-.37.25-.73.5-1.11.73-1.19.74-2.43,1.42-3.56,2.24-.49.35-.66,1.13-1.14,1.5a8,8,0,0,1-1.84.77,4.77,4.77,0,0,1-1.21.51,4.24,4.24,0,0,0-2.16,1c-.54.4-1.17.68-1.74,1.06-.29.19-.66.43-.73.72a2.27,2.27,0,0,1-1.1,1.37l-1.9,1.27c-.71.47-1,.43-1.64-.21s-.89-.53-1.17.3c-.21.63-.49,1.13-1.22,1.14-1.8,0-3.28,1-4.82,1.71-1.12.53-2.1,1.37-3.24,1.85-2.5,1.06-4.36,3-6.51,4.53a17.85,17.85,0,0,0-2.27,1.78,3.28,3.28,0,0,1-1.63.95,10,10,0,0,0-3.75,2.1,12,12,0,0,1-3.3,1.95,3.62,3.62,0,0,0-2,1.27,2.64,2.64,0,0,1-1.06,1c-2,.8-3.63,2.25-5.73,2.79a2.74,2.74,0,0,0-.82.49c-1.89,1.35-3.73,2.77-5.66,4.06s-4.06,2.6-6.15,3.78a31.92,31.92,0,0,1-5.31,2.81.85.85,0,0,0-.48.49c-.4,1.44-1.57,1.81-2.82,2.1a3.44,3.44,0,0,0-1,.35c-.89.54-1.72,1.16-2.62,1.69-2.7,1.59-5.42,3.15-8.14,4.71l-2.61,1.48c-.24.14-.47.31-.7.46-.74.48-1.45,1-2.21,1.44-2,1.14-4,2.27-6,3.37-1.52.82-3.08,1.56-4.61,2.37a8.33,8.33,0,0,0-1.94,1.21,14.92,14.92,0,0,1-5.6,3.37,6.4,6.4,0,0,0-3.17,1.86,4.14,4.14,0,0,1-2.34,1.77c-.32.07-.58.41-.87.63a10.63,10.63,0,0,1-3,1.74,8,8,0,0,0-2.37,1.34,8.71,8.71,0,0,1-2.78,1.61,5.77,5.77,0,0,0-1.84.86c-1.33,1.08-3,1.67-4.15,3a2.32,2.32,0,0,1-1.24.71,5.66,5.66,0,0,0-2.08,1.17c-1,.67-2,1.37-3,2-1.57,1-3.14,1.95-4.75,2.84-1.92,1.07-3.64,2.47-5.76,3.2a6.84,6.84,0,0,0-1.68,1.14,7.51,7.51,0,0,1-1.22,1c-1.57.7-2.94,1.83-4.69,2.15a1.73,1.73,0,0,0-.73.41c-1.33,1.1-2.62,2.24-4,3.32a23.35,23.35,0,0,1-2.28,1.53c-.57.36-1.18.66-1.78,1-.32.17-.65.31-1,.46-1.12.52-2.28,1-3.36,1.58a15.21,15.21,0,0,0-2,1.49c-.78.62-1.49,1.36-2.32,1.9-2.77,1.78-5.56,3.51-8.37,5.23-2.57,1.57-5.17,3.08-7.75,4.63q-2.38,1.42-4.74,2.87c-1.47.91-2.93,1.84-4.41,2.74a3.59,3.59,0,0,1-1,.37c-1,.25-1.49,1.14-2.05,1.89-.1.13,0,.43.08.79,1.07-.42,2.05-.75,3-1.18a6.3,6.3,0,0,1,3.43-.4,1.56,1.56,0,0,1,1.34.95,1.82,1.82,0,0,1-.35.48c-.78.54-1.34,1.15-1,2.21.05.19-.18.66-.33.68-.84.11-1,.74-1.36,1.35a1.89,1.89,0,0,1-.68.66c-1,.65-2,1.32-3.09,1.89-.77.42-1.63.67-2.44,1a1.33,1.33,0,0,0-.78,1.66c.23.68.77.54,1.31.47,1.72-.21,3.43-.48,5.15-.57,2.85-.15,5.7-.18,8.55-.25.48,0,1,0,1.45,0,1.69.07,3.38.17,5.06.19a4.48,4.48,0,0,1,2.22.42,1.82,1.82,0,0,0,1.62.09,11.68,11.68,0,0,1,2.2-.54c1-.16,1.92-.22,2.87-.39,1.9-.36,3.78-.85,5.73-.4a1.14,1.14,0,0,0,.69-.15c4.31-2.15,8.83-3.9,12.87-6.6a1,1,0,0,1,1.33,0,1.06,1.06,0,0,1,0,1.43,9.52,9.52,0,0,1-3.61,2.92,31.94,31.94,0,0,0-3,1.51,1.42,1.42,0,0,0-.87,1.43c1.08.72,1.67.87,2.33.55,2-1,3.91-1.9,5.85-2.88a6.56,6.56,0,0,0,1.22-.94c.79-.68,1.48-1.58,2.57-1.69a3.91,3.91,0,0,0,2.23-1.06c.34-.29.7-.53,1.06-.79l3.5-2.56a2.24,2.24,0,0,1,.61-.38,16.79,16.79,0,0,0,5.16-3.06,3,3,0,0,1,.82-.49,1.13,1.13,0,0,1,1.37.69c.16.58-.28.76-.67,1a5.73,5.73,0,0,0-1,.76c-1.38,1.34-2.63,2.82-4.86,2.77a2,2,0,0,0-1.86,1.32,5.78,5.78,0,0,1-1.27,1.57,12.19,12.19,0,0,1-1.72,1.33c-1.54,1-3.1,2-4.64,3s-2.85,2.58-4.65,3.34c0,0-.06.05-.09.08a11.65,11.65,0,0,1-3.72,2.17c-1.16.31-1.84,1.26-2.66,2a1.33,1.33,0,0,0,.21,2,3.27,3.27,0,0,0,3.62-.83,1.43,1.43,0,0,1,1.53-.66,3.89,3.89,0,0,0,2.62-.7,10.25,10.25,0,0,1,1.71-.82,15.17,15.17,0,0,0,2.58-1c2.73-1.75,5.83-2.9,8.27-5.11a2.15,2.15,0,0,1,.64-.34,62.42,62.42,0,0,0,7.54-3.53,19.3,19.3,0,0,0,2.94-1.86,3.76,3.76,0,0,1,2.83-1.05,7.46,7.46,0,0,0,3.89-.58,8.63,8.63,0,0,1,2.43-.67,3.37,3.37,0,0,0,2.16-1.18,8.35,8.35,0,0,1,3.1-2.25,4.71,4.71,0,0,0,.54-.28c2-1.19,3.91-2.4,5.87-3.58s3.7-2.11,5.48-3.28c1.23-.81,2.24-1.91,3.67-2.47,1.19-.46,2.3-1.15,3.48-1.65a13.69,13.69,0,0,0,4.08-2.31,3.72,3.72,0,0,1,1.07-.53c.7-.3,1.43-.53,2.1-.87,1.15-.58,2.24-1.28,3.41-1.82.91-.42,1.43-.09,1.59.9.07.46.21.77.72.77a24.24,24.24,0,0,0,2.63,0,5,5,0,0,0,1.42-.57c.43-.19.85-.41,1.28-.61.65-.3,1.48-.43,1.91-.92,1.5-1.69,3.72-2.2,5.42-3.53a.74.74,0,0,1,.23-.08c1.15-.38,2.28-.83,3.45-1.11a4,4,0,0,0,2.22-1.34,3.93,3.93,0,0,1,2-1.29,1.89,1.89,0,0,0,.93-.51,8.8,8.8,0,0,1,4-2.43,3.06,3.06,0,0,0,1.42-.86,7.61,7.61,0,0,1,2.22-2c2.15-1.41,4.25-2.91,6.4-4.33a17.37,17.37,0,0,1,3.71-2.2,2.17,2.17,0,0,0,1-1,3.64,3.64,0,0,1,3.72-1.93,1.6,1.6,0,0,0,1.59-.68,3,3,0,0,1,2.75-1.4c.44,0,.88-.1,1.32-.1a1.67,1.67,0,0,0,1.6-1c.77-1.45,2.28-2.08,3.57-2.94a.43.43,0,0,1,.24,0c2.19.07,3.75-1.56,5.72-2.1a.32.32,0,0,0,.19-.14,3.68,3.68,0,0,1,2.49-1.87,3.27,3.27,0,0,0,.6-.41,8.42,8.42,0,0,1,1.24-.74,1.75,1.75,0,0,0,1.31-1.8,1.18,1.18,0,0,1,.79-1.23c1.87-.72,3.58-1.84,5.66-2a7,7,0,0,0,1.85-.55,4.34,4.34,0,0,0,2.4-2.1c.11-.21.25-.4.32-.52.94,0,1.79,0,2.63,0a1.7,1.7,0,0,0,1.75-1.77c0-.32,0-.64,0-1a1.41,1.41,0,0,1,1-1.49,1.3,1.3,0,0,1,1.64.65c.26.51.67.53,1.12.25a10.68,10.68,0,0,0,3.33-2.55,2.9,2.9,0,0,1,1.78-1.16c1.69-.38,3.38-.76,5-1.23,1.24-.35,2.44-.8,3.64-1.26.3-.11.5-.46.75-.7-.21-.22-.41-.45-.63-.65s-.58-.48-1.08-.87c.69-.29,1.14-.53,1.62-.68,2.34-.75,4.71-1.4,7-2.23a9.46,9.46,0,0,0,3.6-1.86,8.87,8.87,0,0,1,3.19-2.1,28.55,28.55,0,0,0,3.41-1.81c1.85-1.06,3.67-2.17,5.52-3.22a6,6,0,0,1,2-.84,4.86,4.86,0,0,0,2.37-1.1,14.68,14.68,0,0,1,2.41-1.8A1.86,1.86,0,0,0,311.4,169c0-.28,0-.56,0-.85q.12-17.65.23-35.29c0-3.95,0-7.9,0-11.85,0-3.43,0-6.85,0-10.28,0-.5.16-1.06-.45-1.5a6.35,6.35,0,0,0-.94.4c-.89.54-1.73,1.16-2.64,1.68-1.46.84-3,1.6-4.43,2.44-.23.13-.53.55-.47.72.34,1-.27,1.27-1,1.64a10.29,10.29,0,0,0-3.16,2.14,4.73,4.73,0,0,1-2.34,1.42,1.59,1.59,0,0,1-1.69-.22.88.88,0,0,0-.76-.12,10.59,10.59,0,0,0-1.94.93,1.65,1.65,0,0,0-.75,1A2.37,2.37,0,0,1,290,123l-1.75,1.28c-1.43,1-2.83,2.12-4.29,3.12a2.48,2.48,0,0,1-1.34.39c-.5,0-1.13-.47-1.45-.28s-.51.92-.77,1.39C279.68,130.19,278.8,130.23,278,128.92ZM130.33,175.29l-.18.1.28.66.12-.05Zm62.94-76.41c-.19,0-.3,0-.31,0a1.45,1.45,0,0,0-.06.31ZM60,188.84l.16,0-.07-.41-.11,0Z"/>
 <rect class="cls-2" width="300.33" x="12.09" y="12.33" height="373.85"/>
 <path class="cls-3" d="M278.81,128.92c.84,1.31,1.72,1.27,2.43,0,.27-.47.38-1.17.77-1.39s1,.28,1.45.28a2.48,2.48,0,0,0,1.34-.39c1.46-1,2.86-2.07,4.29-3.12l1.75-1.28a2.37,2.37,0,0,0,1.17-1.73,1.65,1.65,0,0,1,.75-1,10.59,10.59,0,0,1,1.94-.93.88.88,0,0,1,.76.12,1.59,1.59,0,0,0,1.69.22,4.73,4.73,0,0,0,2.34-1.42,10.29,10.29,0,0,1,3.16-2.14c.68-.37,1.29-.67,1-1.64-.06-.17.24-.58.47-.72,1.46-.84,3-1.6,4.43-2.44.9-.52,1.75-1.13,2.64-1.68a6.35,6.35,0,0,1,.94-.4c.61.44.45,1,.45,1.5,0,3.43,0,6.85,0,10.28,0,3.95,0,7.9,0,11.85q-.1,17.65-.23,35.29c0,.28,0,.56,0,.85a1.86,1.86,0,0,1-1.08,1.81,14.68,14.68,0,0,0-2.41,1.8,4.86,4.86,0,0,1-2.37,1.1,6,6,0,0,0-2,.84c-1.85,1.05-3.67,2.16-5.52,3.22a28.55,28.55,0,0,1-3.41,1.81,8.87,8.87,0,0,0-3.19,2.1,9.46,9.46,0,0,1-3.6,1.86c-2.31.83-4.68,1.49-7,2.23-.47.15-.92.38-1.62.68.49.4.79.62,1.08.87s.42.43.63.65c-.25.24-.45.58-.75.7-1.2.46-2.41.92-3.64,1.26-1.67.47-3.36.84-5,1.23a2.9,2.9,0,0,0-1.78,1.16,10.68,10.68,0,0,1-3.33,2.55c-.45.27-.85.26-1.12-.25a1.3,1.3,0,0,0-1.64-.65,1.41,1.41,0,0,0-1,1.49c0,.32,0,.65,0,1a1.7,1.7,0,0,1-1.75,1.77c-.84.05-1.69,0-2.63,0-.08.12-.21.31-.32.52a4.34,4.34,0,0,1-2.4,2.1,7,7,0,0,1-1.85.55c-2.09.13-3.8,1.25-5.66,2a1.18,1.18,0,0,0-.79,1.23,1.75,1.75,0,0,1-1.31,1.8,8.42,8.42,0,0,0-1.24.74,3.27,3.27,0,0,1-.6.41,3.68,3.68,0,0,0-2.49,1.87.32.32,0,0,1-.19.14c-2,.54-3.53,2.17-5.72,2.1a.43.43,0,0,0-.24,0c-1.29.86-2.8,1.49-3.57,2.94a1.67,1.67,0,0,1-1.6,1c-.44,0-.88.09-1.32.1a3,3,0,0,0-2.75,1.4,1.6,1.6,0,0,1-1.59.68,3.64,3.64,0,0,0-3.72,1.93,2.17,2.17,0,0,1-1,1,17.37,17.37,0,0,0-3.71,2.2c-2.15,1.42-4.24,2.92-6.4,4.33a7.61,7.61,0,0,0-2.22,2,3.06,3.06,0,0,1-1.42.86,8.8,8.8,0,0,0-4,2.43,1.89,1.89,0,0,1-.93.51,3.93,3.93,0,0,0-2,1.29,4,4,0,0,1-2.22,1.34c-1.17.27-2.3.73-3.45,1.11a.74.74,0,0,0-.23.08c-1.7,1.33-3.92,1.84-5.42,3.53-.43.49-1.27.62-1.91.92-.43.2-.85.42-1.28.61a5,5,0,0,1-1.42.57,24.24,24.24,0,0,1-2.63,0c-.51,0-.65-.31-.72-.77-.15-1-.68-1.32-1.59-.9-1.17.54-2.26,1.24-3.41,1.82-.68.34-1.4.58-2.1.87a3.72,3.72,0,0,0-1.07.53,13.69,13.69,0,0,1-4.08,2.31c-1.18.5-2.29,1.19-3.48,1.65-1.43.55-2.44,1.66-3.67,2.47-1.78,1.17-3.66,2.18-5.48,3.28s-3.91,2.39-5.87,3.58a4.71,4.71,0,0,1-.54.28,8.35,8.35,0,0,0-3.1,2.25,3.37,3.37,0,0,1-2.16,1.18,8.63,8.63,0,0,0-2.43.67,7.46,7.46,0,0,1-3.89.58,3.76,3.76,0,0,0-2.83,1.05,19.3,19.3,0,0,1-2.94,1.86,62.42,62.42,0,0,1-7.54,3.53,2.15,2.15,0,0,0-.64.34c-2.44,2.21-5.55,3.36-8.27,5.11a15.17,15.17,0,0,1-2.58,1,10.25,10.25,0,0,0-1.71.82,3.89,3.89,0,0,1-2.62.7,1.43,1.43,0,0,0-1.53.66,3.27,3.27,0,0,1-3.62.83,1.33,1.33,0,0,1-.21-2c.83-.74,1.5-1.69,2.66-2a11.65,11.65,0,0,0,3.72-2.17s.06-.06.09-.08c1.8-.76,3.05-2.3,4.65-3.34s3.11-2,4.64-3a12.19,12.19,0,0,0,1.72-1.33,5.78,5.78,0,0,0,1.27-1.57,2,2,0,0,1,1.86-1.32c2.22.05,3.48-1.43,4.86-2.77a5.73,5.73,0,0,1,1-.76c.39-.23.82-.41.67-1a1.13,1.13,0,0,0-1.37-.69,3,3,0,0,0-.82.49,16.79,16.79,0,0,1-5.16,3.06,2.24,2.24,0,0,0-.61.38l-3.5,2.56c-.36.26-.72.51-1.06.79a3.91,3.91,0,0,1-2.23,1.06c-1.1.1-1.79,1-2.57,1.69a6.56,6.56,0,0,1-1.22.94c-1.94,1-3.9,1.93-5.85,2.88-.65.32-1.24.17-2.33-.55a1.42,1.42,0,0,1,.87-1.43,31.94,31.94,0,0,1,3-1.51,9.52,9.52,0,0,0,3.61-2.92,1.06,1.06,0,0,0,0-1.43,1,1,0,0,0-1.33,0c-4,2.7-8.55,4.45-12.87,6.6a1.14,1.14,0,0,1-.69.15c-2-.45-3.83,0-5.73.4-.95.18-1.92.23-2.87.39a11.68,11.68,0,0,0-2.2.54,1.82,1.82,0,0,1-1.62-.09,4.48,4.48,0,0,0-2.22-.42c-1.69,0-3.38-.13-5.06-.19-.48,0-1,0-1.45,0-2.85.07-5.7.1-8.55.25-1.72.09-3.44.36-5.15.57-.53.07-1.07.2-1.31-.47a1.33,1.33,0,0,1,.78-1.66c.81-.35,1.66-.61,2.44-1,1.06-.57,2.07-1.23,3.09-1.89a1.89,1.89,0,0,0,.68-.66c.31-.61.52-1.25,1.36-1.35.14,0,.38-.49.33-.68-.3-1.07.25-1.68,1-2.21a1.82,1.82,0,0,0,.35-.48,1.56,1.56,0,0,0-1.34-.95,6.3,6.3,0,0,0-3.43.4c-.94.43-1.93.77-3,1.18,0-.36-.17-.66-.08-.79.56-.75,1-1.63,2.05-1.89a3.59,3.59,0,0,0,1-.37c1.48-.9,2.93-1.83,4.41-2.74s3.16-1.92,4.74-2.87c2.58-1.55,5.18-3.06,7.75-4.63,2.81-1.71,5.61-3.45,8.37-5.23.84-.54,1.54-1.28,2.32-1.9a15.21,15.21,0,0,1,2-1.49c1.08-.6,2.24-1.06,3.36-1.58.33-.15.66-.29,1-.46.6-.32,1.21-.62,1.78-1a23.35,23.35,0,0,0,2.28-1.53c1.35-1.07,2.64-2.22,4-3.32a1.73,1.73,0,0,1,.73-.41c1.75-.32,3.12-1.45,4.69-2.15a7.51,7.51,0,0,0,1.22-1,6.84,6.84,0,0,1,1.68-1.14c2.12-.73,3.85-2.13,5.76-3.2,1.61-.9,3.18-1.87,4.75-2.84,1-.64,2-1.33,3-2A5.66,5.66,0,0,1,131.5,217a2.32,2.32,0,0,0,1.24-.71c1.15-1.34,2.82-1.93,4.15-3a5.77,5.77,0,0,1,1.84-.86,8.71,8.71,0,0,0,2.78-1.61,8,8,0,0,1,2.37-1.34,10.63,10.63,0,0,0,3-1.74c.29-.22.55-.56.87-.63a4.14,4.14,0,0,0,2.34-1.77,6.4,6.4,0,0,1,3.17-1.86,14.92,14.92,0,0,0,5.6-3.37,8.33,8.33,0,0,1,1.94-1.21c1.53-.81,3.09-1.55,4.61-2.37,2-1.09,4-2.22,6-3.37.76-.44,1.48-1,2.21-1.44.23-.15.46-.32.7-.46l2.61-1.48c2.72-1.56,5.43-3.12,8.14-4.71.9-.53,1.73-1.15,2.62-1.69a3.44,3.44,0,0,1,1-.35c1.25-.29,2.42-.66,2.82-2.1a.85.85,0,0,1,.48-.49,31.92,31.92,0,0,0,5.31-2.81q3.14-1.78,6.15-3.78c1.93-1.29,3.77-2.7,5.66-4.06a2.74,2.74,0,0,1,.82-.49c2.1-.54,3.75-2,5.73-2.79a2.64,2.64,0,0,0,1.06-1,3.62,3.62,0,0,1,2-1.27,12,12,0,0,0,3.3-1.95,10,10,0,0,1,3.75-2.1,3.28,3.28,0,0,0,1.63-.95,17.85,17.85,0,0,1,2.27-1.78c2.15-1.54,4-3.47,6.51-4.53,1.14-.48,2.12-1.32,3.24-1.85,1.54-.72,3-1.68,4.82-1.71.73,0,1-.51,1.22-1.14.28-.83.56-.88,1.17-.3s.93.68,1.64.21l1.9-1.27a2.27,2.27,0,0,0,1.1-1.37c.07-.28.45-.53.73-.72.56-.38,1.2-.66,1.74-1.06a4.24,4.24,0,0,1,2.16-1,4.77,4.77,0,0,0,1.21-.51,8,8,0,0,0,1.84-.77c.48-.37.66-1.14,1.14-1.5,1.13-.82,2.37-1.5,3.56-2.24.37-.23.74-.48,1.11-.73a2.31,2.31,0,0,1,2.13-.43,3.39,3.39,0,0,0,1.83-.29c.64-.21,1.21-.67,1.86-.85a8.84,8.84,0,0,0,3.53-2.45,2.13,2.13,0,0,0,.49-1.19,1.77,1.77,0,0,1,1.23-1.48c.81-.34,1.57-.79,2.36-1.19A4.16,4.16,0,0,1,278.81,128.92Z"/>
 <path class="cls-4" d="M278.81,213.51c.84,1.31,1.72,1.27,2.43,0,.27-.47.38-1.17.77-1.39s1,.28,1.45.28a2.48,2.48,0,0,0,1.34-.39c1.46-1,2.86-2.07,4.29-3.12l1.75-1.28a2.37,2.37,0,0,0,1.17-1.73,1.65,1.65,0,0,1,.75-1,10.59,10.59,0,0,1,1.94-.93.88.88,0,0,1,.76.12,1.59,1.59,0,0,0,1.69.22,4.73,4.73,0,0,0,2.34-1.42,10.29,10.29,0,0,1,3.16-2.14c.68-.37,1.29-.67,1-1.64-.06-.17.24-.58.47-.72,1.46-.84,3-1.6,4.43-2.44.9-.52,1.75-1.13,2.64-1.68a6.35,6.35,0,0,1,.94-.4c.61.44.45,1,.45,1.5,0,3.43,0,6.85,0,10.28,0,3.95,0,7.9,0,11.85q-.1,17.65-.23,35.29c0,.28,0,.56,0,.85a1.86,1.86,0,0,1-1.08,1.81,14.68,14.68,0,0,0-2.41,1.8,4.86,4.86,0,0,1-2.37,1.1,6,6,0,0,0-2,.84c-1.85,1.05-3.67,2.16-5.52,3.22a28.55,28.55,0,0,1-3.41,1.81,8.87,8.87,0,0,0-3.19,2.1,9.46,9.46,0,0,1-3.6,1.86c-2.31.83-4.68,1.49-7,2.23-.47.15-.92.38-1.62.68.49.4.79.62,1.08.87s.42.43.63.65c-.25.24-.45.58-.75.7-1.2.46-2.41.92-3.64,1.26-1.67.47-3.36.84-5,1.23a2.9,2.9,0,0,0-1.78,1.16,10.68,10.68,0,0,1-3.33,2.55c-.45.27-.85.26-1.12-.25a1.3,1.3,0,0,0-1.64-.65,1.41,1.41,0,0,0-1,1.49c0,.32,0,.65,0,1a1.7,1.7,0,0,1-1.75,1.77c-.84.05-1.69,0-2.63,0-.08.12-.21.31-.32.52a4.34,4.34,0,0,1-2.4,2.1,7,7,0,0,1-1.85.55c-2.09.13-3.8,1.25-5.66,2a1.18,1.18,0,0,0-.79,1.23,1.75,1.75,0,0,1-1.31,1.8,8.42,8.42,0,0,0-1.24.74,3.27,3.27,0,0,1-.6.41A3.68,3.68,0,0,0,242.4,294a.32.32,0,0,1-.19.14c-2,.54-3.53,2.17-5.72,2.1a.43.43,0,0,0-.24,0c-1.29.86-2.8,1.49-3.57,2.94a1.67,1.67,0,0,1-1.6,1c-.44,0-.88.09-1.32.1a3,3,0,0,0-2.75,1.4,1.6,1.6,0,0,1-1.59.68,3.64,3.64,0,0,0-3.72,1.93,2.17,2.17,0,0,1-1,1,17.37,17.37,0,0,0-3.71,2.2c-2.15,1.42-4.24,2.92-6.4,4.33a7.61,7.61,0,0,0-2.22,2,3.06,3.06,0,0,1-1.42.86,8.8,8.8,0,0,0-4,2.43,1.89,1.89,0,0,1-.93.51,3.93,3.93,0,0,0-2,1.29,4,4,0,0,1-2.22,1.34c-1.17.27-2.3.73-3.45,1.11a.74.74,0,0,0-.23.08c-1.7,1.33-3.92,1.84-5.42,3.53-.43.49-1.27.62-1.91.92-.43.2-.85.42-1.28.61a5,5,0,0,1-1.42.57,24.24,24.24,0,0,1-2.63,0c-.51,0-.65-.31-.72-.77-.15-1-.68-1.32-1.59-.9-1.17.54-2.26,1.24-3.41,1.82-.68.34-1.4.58-2.1.87a3.72,3.72,0,0,0-1.07.53A13.69,13.69,0,0,1,168.5,331c-1.18.5-2.29,1.19-3.48,1.65-1.43.55-2.44,1.66-3.67,2.47-1.78,1.17-3.66,2.18-5.48,3.28S152,340.76,150,342a4.71,4.71,0,0,1-.54.28,8.35,8.35,0,0,0-3.1,2.25,3.37,3.37,0,0,1-2.16,1.18,8.63,8.63,0,0,0-2.43.67,7.46,7.46,0,0,1-3.89.58A3.76,3.76,0,0,0,135,348a19.3,19.3,0,0,1-2.94,1.86,62.42,62.42,0,0,1-7.54,3.53,2.15,2.15,0,0,0-.64.34c-2.44,2.21-5.55,3.36-8.27,5.11a15.17,15.17,0,0,1-2.58,1,10.25,10.25,0,0,0-1.71.82,3.89,3.89,0,0,1-2.62.7,1.43,1.43,0,0,0-1.53.66,3.27,3.27,0,0,1-3.62.83,1.33,1.33,0,0,1-.21-2c.83-.74,1.5-1.69,2.66-2a11.65,11.65,0,0,0,3.72-2.17s.06-.06.09-.08c1.8-.76,3.05-2.3,4.65-3.34s3.11-2,4.64-3a12.19,12.19,0,0,0,1.72-1.33,5.78,5.78,0,0,0,1.27-1.57A2,2,0,0,1,124,346c2.22.05,3.48-1.43,4.86-2.77a5.73,5.73,0,0,1,1-.76c.39-.23.82-.41.67-1a1.13,1.13,0,0,0-1.37-.69,3,3,0,0,0-.82.49,16.79,16.79,0,0,1-5.16,3.06,2.24,2.24,0,0,0-.61.38l-3.5,2.56c-.36.26-.72.51-1.06.79a3.91,3.91,0,0,1-2.23,1.06c-1.1.1-1.79,1-2.57,1.69a6.56,6.56,0,0,1-1.22.94c-1.94,1-3.9,1.93-5.85,2.88-.65.32-1.24.17-2.33-.55a1.42,1.42,0,0,1,.87-1.43,31.94,31.94,0,0,1,3-1.51,9.52,9.52,0,0,0,3.61-2.92,1.06,1.06,0,0,0,0-1.43,1,1,0,0,0-1.33,0c-4,2.7-8.55,4.45-12.87,6.6a1.14,1.14,0,0,1-.69.15c-2-.45-3.83,0-5.73.4-.95.18-1.92.23-2.87.39a11.68,11.68,0,0,0-2.2.54,1.82,1.82,0,0,1-1.62-.09,4.48,4.48,0,0,0-2.22-.42c-1.69,0-3.38-.13-5.06-.19-.48,0-1,0-1.45,0-2.85.07-5.7.1-8.55.25-1.72.09-3.44.36-5.15.57-.53.07-1.07.2-1.31-.47a1.33,1.33,0,0,1,.78-1.66c.81-.35,1.66-.61,2.44-1,1.06-.57,2.07-1.23,3.09-1.89a1.89,1.89,0,0,0,.68-.66c.31-.61.52-1.25,1.36-1.35.14,0,.38-.49.33-.68-.3-1.07.25-1.68,1-2.21a1.82,1.82,0,0,0,.35-.48,1.56,1.56,0,0,0-1.34-.95,6.3,6.3,0,0,0-3.43.4c-.94.43-1.93.77-3,1.18,0-.36-.17-.66-.08-.79.56-.75,1-1.63,2.05-1.89a3.59,3.59,0,0,0,1-.37c1.48-.9,2.93-1.83,4.41-2.74s3.16-1.92,4.74-2.87c2.58-1.55,5.18-3.06,7.75-4.63,2.81-1.71,5.61-3.45,8.37-5.23.84-.54,1.54-1.28,2.32-1.9a15.21,15.21,0,0,1,2-1.49c1.08-.6,2.24-1.06,3.36-1.58.33-.15.66-.29,1-.46.6-.32,1.21-.62,1.78-1a23.35,23.35,0,0,0,2.28-1.53c1.35-1.07,2.64-2.22,4-3.32a1.73,1.73,0,0,1,.73-.41c1.75-.32,3.12-1.45,4.69-2.15a7.51,7.51,0,0,0,1.22-1,6.84,6.84,0,0,1,1.68-1.14c2.12-.73,3.85-2.13,5.76-3.2,1.61-.9,3.18-1.87,4.75-2.84,1-.64,2-1.33,3-2a5.66,5.66,0,0,1,2.08-1.17,2.32,2.32,0,0,0,1.24-.71c1.15-1.34,2.82-1.93,4.15-3a5.77,5.77,0,0,1,1.84-.86,8.71,8.71,0,0,0,2.78-1.61,8,8,0,0,1,2.37-1.34,10.63,10.63,0,0,0,3-1.74c.29-.22.55-.56.87-.63a4.14,4.14,0,0,0,2.34-1.77,6.4,6.4,0,0,1,3.17-1.86,14.92,14.92,0,0,0,5.6-3.37,8.33,8.33,0,0,1,1.94-1.21c1.53-.81,3.09-1.55,4.61-2.37,2-1.09,4-2.22,6-3.37.76-.44,1.48-1,2.21-1.44.23-.15.46-.32.7-.46l2.61-1.48c2.72-1.56,5.43-3.12,8.14-4.71.9-.53,1.73-1.15,2.62-1.69a3.44,3.44,0,0,1,1-.35c1.25-.29,2.42-.66,2.82-2.1A.85.85,0,0,1,192,265a31.92,31.92,0,0,0,5.31-2.81q3.14-1.78,6.15-3.78c1.93-1.29,3.77-2.7,5.66-4.06a2.74,2.74,0,0,1,.82-.49c2.1-.54,3.75-2,5.73-2.79a2.64,2.64,0,0,0,1.06-1,3.62,3.62,0,0,1,2-1.27,12,12,0,0,0,3.3-1.95,10,10,0,0,1,3.75-2.1,3.28,3.28,0,0,0,1.63-.95,17.85,17.85,0,0,1,2.27-1.78c2.15-1.54,4-3.47,6.51-4.53,1.14-.48,2.12-1.32,3.24-1.85,1.54-.72,3-1.68,4.82-1.71.73,0,1-.51,1.22-1.14.28-.83.56-.88,1.17-.3s.93.68,1.64.21l1.9-1.27a2.27,2.27,0,0,0,1.1-1.37c.07-.28.45-.53.73-.72.56-.38,1.2-.66,1.74-1.06a4.24,4.24,0,0,1,2.16-1,4.77,4.77,0,0,0,1.21-.51A8,8,0,0,0,259,226c.48-.37.66-1.14,1.14-1.5,1.13-.82,2.37-1.5,3.56-2.24.37-.23.74-.48,1.11-.73a2.31,2.31,0,0,1,2.13-.43,3.39,3.39,0,0,0,1.83-.29c.64-.21,1.21-.67,1.86-.85a8.84,8.84,0,0,0,3.53-2.45,2.13,2.13,0,0,0,.49-1.19,1.77,1.77,0,0,1,1.23-1.48c.81-.34,1.57-.79,2.36-1.19A4.16,4.16,0,0,1,278.81,213.51Z"/>
 <path class="cls-5" d="M278.57,43.24c.84,1.31,1.72,1.27,2.43,0,.27-.47.38-1.17.77-1.39s1,.28,1.45.28a2.48,2.48,0,0,0,1.34-.39c1.46-1,2.86-2.07,4.29-3.12l1.75-1.28a2.37,2.37,0,0,0,1.17-1.73,1.65,1.65,0,0,1,.75-1,10.59,10.59,0,0,1,1.94-.93.88.88,0,0,1,.76.12,1.59,1.59,0,0,0,1.69.22,4.73,4.73,0,0,0,2.34-1.42,10.29,10.29,0,0,1,3.16-2.14c.68-.37,1.29-.67,1-1.64-.06-.17.24-.58.47-.72,1.46-.84,3-1.6,4.43-2.44.9-.52,1.75-1.13,2.64-1.68a6.35,6.35,0,0,1,.94-.4c.61.44.45,1,.45,1.5,0,3.43,0,6.85,0,10.28,0,3.95,0,7.9,0,11.85q-.1,17.65-.23,35.29c0,.28,0,.56,0,.85a1.86,1.86,0,0,1-1.08,1.81,14.68,14.68,0,0,0-2.41,1.8,4.86,4.86,0,0,1-2.37,1.1,6,6,0,0,0-2,.84c-1.85,1.05-3.67,2.16-5.52,3.22a28.55,28.55,0,0,1-3.41,1.81A8.87,8.87,0,0,0,292,96a9.46,9.46,0,0,1-3.6,1.86c-2.31.83-4.68,1.49-7,2.23-.47.15-.92.38-1.62.68.49.4.79.62,1.08.87s.42.43.63.65c-.25.24-.45.58-.75.7-1.2.46-2.41.92-3.64,1.26-1.67.47-3.36.84-5,1.23a2.9,2.9,0,0,0-1.78,1.16,10.68,10.68,0,0,1-3.33,2.55c-.45.27-.85.26-1.12-.25a1.3,1.3,0,0,0-1.64-.65,1.41,1.41,0,0,0-1,1.49c0,.32,0,.65,0,1a1.7,1.7,0,0,1-1.75,1.77c-.84.05-1.69,0-2.63,0-.08.12-.21.31-.32.52a4.34,4.34,0,0,1-2.4,2.1,7,7,0,0,1-1.85.55c-2.09.13-3.8,1.25-5.66,2a1.18,1.18,0,0,0-.79,1.23,1.75,1.75,0,0,1-1.31,1.8,8.42,8.42,0,0,0-1.24.74,3.27,3.27,0,0,1-.6.41,3.68,3.68,0,0,0-2.49,1.87.32.32,0,0,1-.19.14c-2,.54-3.53,2.17-5.72,2.1a.43.43,0,0,0-.24,0c-1.29.86-2.8,1.49-3.57,2.94a1.67,1.67,0,0,1-1.6,1c-.44,0-.88.09-1.32.1a3,3,0,0,0-2.75,1.4,1.6,1.6,0,0,1-1.59.68,3.64,3.64,0,0,0-3.72,1.93,2.17,2.17,0,0,1-1,1,17.37,17.37,0,0,0-3.71,2.2c-2.15,1.42-4.24,2.92-6.4,4.33a7.61,7.61,0,0,0-2.22,2,3.06,3.06,0,0,1-1.42.86,8.8,8.8,0,0,0-4,2.43,1.89,1.89,0,0,1-.93.51,3.93,3.93,0,0,0-2,1.29,4,4,0,0,1-2.22,1.34c-1.17.27-2.3.73-3.45,1.11a.74.74,0,0,0-.23.08c-1.7,1.33-3.92,1.84-5.42,3.53-.43.49-1.27.62-1.91.92-.43.2-.85.42-1.28.61a5,5,0,0,1-1.42.57,24.24,24.24,0,0,1-2.63,0c-.51,0-.65-.31-.72-.77-.15-1-.68-1.32-1.59-.9-1.17.54-2.26,1.24-3.41,1.82-.68.34-1.4.58-2.1.87a3.72,3.72,0,0,0-1.07.53,13.69,13.69,0,0,1-4.08,2.31c-1.18.5-2.29,1.19-3.48,1.65-1.43.55-2.44,1.66-3.67,2.47-1.78,1.17-3.66,2.18-5.48,3.28s-3.91,2.39-5.87,3.58a4.71,4.71,0,0,1-.54.28,8.35,8.35,0,0,0-3.1,2.25,3.37,3.37,0,0,1-2.16,1.18,8.63,8.63,0,0,0-2.43.67,7.46,7.46,0,0,1-3.89.58,3.76,3.76,0,0,0-2.83,1.05,19.3,19.3,0,0,1-2.94,1.86,62.42,62.42,0,0,1-7.54,3.53,2.15,2.15,0,0,0-.64.34c-2.44,2.21-5.55,3.36-8.27,5.11a15.17,15.17,0,0,1-2.58,1,10.25,10.25,0,0,0-1.71.82,3.89,3.89,0,0,1-2.62.7,1.43,1.43,0,0,0-1.53.66,3.27,3.27,0,0,1-3.62.83,1.33,1.33,0,0,1-.21-2c.83-.74,1.5-1.69,2.66-2a11.65,11.65,0,0,0,3.72-2.17s.06-.06.09-.08c1.8-.76,3.05-2.3,4.65-3.34s3.11-2,4.64-3a12.19,12.19,0,0,0,1.72-1.33,5.78,5.78,0,0,0,1.27-1.57,2,2,0,0,1,1.86-1.32c2.22.05,3.48-1.43,4.86-2.77a5.73,5.73,0,0,1,1-.76c.39-.23.82-.41.67-1a1.13,1.13,0,0,0-1.37-.69,3,3,0,0,0-.82.49,16.79,16.79,0,0,1-5.16,3.06,2.24,2.24,0,0,0-.61.38l-3.5,2.56c-.36.26-.72.51-1.06.79a3.91,3.91,0,0,1-2.23,1.06c-1.1.1-1.79,1-2.57,1.69a6.56,6.56,0,0,1-1.22.94c-1.94,1-3.9,1.93-5.85,2.88-.65.32-1.24.17-2.33-.55a1.42,1.42,0,0,1,.87-1.43,31.94,31.94,0,0,1,3-1.51,9.52,9.52,0,0,0,3.61-2.92,1.06,1.06,0,0,0,0-1.43,1,1,0,0,0-1.33,0c-4,2.7-8.55,4.45-12.87,6.6a1.14,1.14,0,0,1-.69.15c-2-.45-3.83,0-5.73.4-.95.18-1.92.23-2.87.39a11.68,11.68,0,0,0-2.2.54,1.82,1.82,0,0,1-1.62-.09,4.48,4.48,0,0,0-2.22-.42c-1.69,0-3.38-.13-5.06-.19-.48,0-1,0-1.45,0-2.85.07-5.7.1-8.55.25-1.72.09-3.44.36-5.15.57-.53.07-1.07.2-1.31-.47a1.33,1.33,0,0,1,.78-1.66c.81-.35,1.66-.61,2.44-1,1.06-.57,2.07-1.23,3.09-1.89a1.89,1.89,0,0,0,.68-.66c.31-.61.52-1.25,1.36-1.35.14,0,.38-.49.33-.68-.3-1.07.25-1.68,1-2.21a1.82,1.82,0,0,0,.35-.48,1.56,1.56,0,0,0-1.34-.95,6.3,6.3,0,0,0-3.43.4c-.94.43-1.93.77-3,1.18,0-.36-.17-.66-.08-.79.56-.75,1-1.63,2.05-1.89a3.59,3.59,0,0,0,1-.37c1.48-.9,2.93-1.83,4.41-2.74s3.16-1.92,4.74-2.87c2.58-1.55,5.18-3.06,7.75-4.63,2.81-1.71,5.61-3.45,8.37-5.23.84-.54,1.54-1.28,2.32-1.9a15.21,15.21,0,0,1,2-1.49c1.08-.6,2.24-1.06,3.36-1.58.33-.15.66-.29,1-.46.6-.32,1.21-.62,1.78-1a23.35,23.35,0,0,0,2.28-1.53c1.35-1.07,2.64-2.22,4-3.32a1.73,1.73,0,0,1,.73-.41c1.75-.32,3.12-1.45,4.69-2.15a7.51,7.51,0,0,0,1.22-1,6.84,6.84,0,0,1,1.68-1.14c2.12-.73,3.85-2.13,5.76-3.2,1.61-.9,3.18-1.87,4.75-2.84,1-.64,2-1.33,3-2a5.66,5.66,0,0,1,2.08-1.17,2.32,2.32,0,0,0,1.24-.71c1.15-1.34,2.82-1.93,4.15-3a5.77,5.77,0,0,1,1.84-.86,8.71,8.71,0,0,0,2.78-1.61,8,8,0,0,1,2.37-1.34,10.63,10.63,0,0,0,3-1.74c.29-.22.55-.56.87-.63a4.14,4.14,0,0,0,2.34-1.77,6.4,6.4,0,0,1,3.17-1.86,14.92,14.92,0,0,0,5.6-3.37,8.33,8.33,0,0,1,1.94-1.21c1.53-.81,3.09-1.55,4.61-2.37,2-1.09,4-2.22,6-3.37.76-.44,1.48-1,2.21-1.44.23-.15.46-.32.7-.46l2.61-1.48c2.72-1.56,5.43-3.12,8.14-4.71.9-.53,1.73-1.15,2.62-1.69a3.44,3.44,0,0,1,1-.35c1.25-.29,2.42-.66,2.82-2.1a.85.85,0,0,1,.48-.49,31.92,31.92,0,0,0,5.31-2.81q3.14-1.78,6.15-3.78c1.93-1.29,3.77-2.7,5.66-4.06a2.74,2.74,0,0,1,.82-.49c2.1-.54,3.75-2,5.73-2.79a2.64,2.64,0,0,0,1.06-1,3.62,3.62,0,0,1,2-1.27,12,12,0,0,0,3.3-1.95,10,10,0,0,1,3.75-2.1,3.28,3.28,0,0,0,1.63-.95,17.85,17.85,0,0,1,2.27-1.78c2.15-1.54,4-3.47,6.51-4.53,1.14-.48,2.12-1.32,3.24-1.85,1.54-.72,3-1.68,4.82-1.71.73,0,1-.51,1.22-1.14.28-.83.56-.88,1.17-.3s.93.68,1.64.21l1.9-1.27a2.27,2.27,0,0,0,1.1-1.37c.07-.28.45-.53.73-.72.56-.38,1.2-.66,1.74-1.06a4.24,4.24,0,0,1,2.16-1,4.77,4.77,0,0,0,1.21-.51,8,8,0,0,0,1.84-.77c.48-.37.66-1.14,1.14-1.5,1.13-.82,2.37-1.5,3.56-2.24.37-.23.74-.48,1.11-.73a2.31,2.31,0,0,1,2.13-.43,3.39,3.39,0,0,0,1.83-.29c.64-.21,1.21-.67,1.86-.85a8.84,8.84,0,0,0,3.53-2.45,2.13,2.13,0,0,0,.49-1.19,1.77,1.77,0,0,1,1.23-1.48c.81-.34,1.57-.79,2.36-1.19A4.16,4.16,0,0,1,278.57,43.24Z"/>
 <path d="M130.33,175.29l.23.71-.12.05-.28-.66Z"/>
 <path d="M193.27,98.88l-.37.33a1.45,1.45,0,0,1,.06-.31S193.08,98.89,193.27,98.88Z"/>
</svg>
